<svg
  height="512pt"
  viewBox="0 0 512 512"
  width="512pt"
  xmlns="http://www.w3.org/2000/svg"
>
  <path d="m512 256c0 141.386719-114.613281 256-256 256s-256-114.613281-256-256 114.613281-256 256-256 256 114.613281 256 256zm0 0" fill="#4a7aff"/>
  <path d="m512 256c0-11.40625-.757812-22.640625-2.203125-33.652344l-57.796875-57.796875-392 182.898438 162.347656 162.347656c11.011719 1.445313 22.246094 2.203125 33.652344 2.203125 141.386719 0 256-114.613281 256-256zm0 0" fill="#2864f0"/>
  <path d="m60 164.550781h392v182.898438h-392zm0 0" fill="#fff"/>
  <path d="m256 164.550781h196v182.898438h-196zm0 0" fill="#f2f6fc"/>
  <path d="m82.613281 164.550781h36.386719v182.898438h-36.386719zm0 0"/>
  <path d="m219.613281 164.550781h36.386719v182.898438h-36.386719zm0 0"/>
  <path d="m137.613281 164.550781h18.191407v182.898438h-18.191407zm0 0"/>
  <path d="m168.613281 164.550781h18.191407v182.898438h-18.191407zm0 0"/>
  <path d="m276.902344 164.550781h18.195312v182.898438h-18.195312zm0 0" fill="#333940"/>
  <path d="m315.902344 164.550781h18.195312v182.898438h-18.195312zm0 0" fill="#333940"/>
  <path d="m342.902344 164.550781h18.195312v182.898438h-18.195312zm0 0" fill="#333940"/>
  <path d="m394.949219 164.550781h35.148437v182.898438h-35.148437zm0 0" fill="#333940"/>
</svg>
