<svg height="480pt" viewBox="-112 0 480 480" width="480pt" xmlns="http://www.w3.org/2000/svg">
  <g fill="#FFFFFF" fill-opacity="0.2">
    <path d="m8 480h240c4.417969 0 8-3.582031 8-8v-336c0-2.121094-.84375-4.15625-2.34375-5.65625l-48-48c-1.5-1.5-3.535156-2.34375-5.65625-2.34375h-64v-72c0-4.417969-3.582031-8-8-8s-8 3.582031-8 8v72h-64c-2.121094 0-4.15625.84375-5.65625 2.34375l-48 48c-1.5 1.5-2.34375 3.535156-2.34375 5.65625v336c0 4.417969 3.582031 8 8 8zm8-340.6875 43.3125-43.3125h60.6875v49.136719c-15.601562 4.027343-25.777344 19.03125-23.746094 35.015625s15.632813 27.96875 31.746094 27.96875 29.714844-11.984375 31.746094-27.96875-8.144532-30.988282-23.746094-35.015625v-49.136719h60.6875l43.3125 43.3125v324.6875h-224zm112 36.6875c4.417969 0 8-3.582031 8-8v-5.777344c6.273438 3.621094 9.328125 11.003906 7.453125 18-1.871094 6.992188-8.210937 11.859375-15.453125 11.859375s-13.582031-4.867187-15.453125-11.859375c-1.875-6.996094 1.179687-14.378906 7.453125-18v5.777344c0 4.417969 3.582031 8 8 8zm0 0"/>
    <path d="m32 304h32v144h-32zm0 0"/>
    <path d="m112 304h32v144h-32zm0 0"/>
    <path d="m160 304h32v144h-32zm0 0"/>
    <path d="m208 304h16v144h-16zm0 0"/>
    <path d="m80 304h16v144h-16zm0 0"/>
  </g>
</svg>